<?xml version="1.0" standalone="no"?>
<!DOCTYPE svg PUBLIC "-//W3C//DTD SVG 20010904//EN"
 "http://www.w3.org/TR/2001/REC-SVG-20010904/DTD/svg10.dtd">
<svg version="1.0" xmlns="http://www.w3.org/2000/svg"
 width="567.000000pt" height="567.000000pt" viewBox="0 0 567.000000 567.000000"
 preserveAspectRatio="xMidYMid meet">
<metadata>
Created by potrace 1.11, written by Peter Selinger 2001-2013
</metadata>
<g transform="translate(0.000000,567.000000) scale(0.100000,-0.100000)"
fill="#000000" stroke="none">
<path d="M2999 5665 c-2 -1 -42 -6 -89 -9 -47 -4 -96 -9 -110 -10 -92 -13
-195 -30 -255 -43 -38 -8 -81 -17 -95 -19 -30 -5 -102 -26 -225 -64 -307 -95
-609 -251 -883 -457 -124 -93 -371 -331 -464 -448 -258 -325 -435 -687 -528
-1080 -28 -118 -33 -142 -46 -240 -3 -27 -8 -52 -9 -55 -26 -44 -25 -682 0
-822 2 -9 7 -38 10 -65 4 -26 11 -64 15 -83 5 -19 12 -51 15 -70 39 -227 161
-549 302 -799 44 -78 182 -283 202 -301 4 -3 33 -38 65 -79 138 -172 386 -393
601 -534 402 -263 891 -430 1385 -474 183 -16 655 -8 763 13 10 2 52 8 93 13
40 6 115 20 166 31 51 12 103 23 116 26 54 11 264 78 347 111 110 44 300 137
394 195 204 124 356 249 559 460 l53 55 -265 263 c-146 145 -271 267 -278 271
-8 5 -44 -24 -103 -83 -312 -316 -719 -521 -1135 -573 -30 -4 -82 -11 -115
-15 -64 -9 -493 -5 -535 4 -14 3 -69 12 -123 21 -123 19 -264 57 -387 102
-103 38 -321 142 -358 171 l-22 17 134 134 134 134 96 -42 c156 -68 316 -118
441 -136 22 -4 51 -8 65 -11 113 -22 515 -22 581 0 8 3 33 7 56 10 210 26 528
157 705 291 123 92 245 215 347 347 16 21 56 -20 -333 341 -22 22 -68 64 -101
94 -33 31 -88 82 -121 115 -34 32 -66 58 -70 58 -5 -1 -27 -24 -49 -52 -147
-186 -319 -301 -515 -343 -90 -19 -323 -13 -410 10 -359 96 -577 389 -584 785
-7 367 160 643 472 779 96 42 185 61 307 66 296 10 496 -83 714 -332 42 -49
67 -70 76 -65 7 4 46 38 87 76 109 103 209 198 348 326 190 177 190 177 190
183 0 3 -6 12 -12 19 -7 7 -31 36 -53 63 -54 68 -185 196 -254 249 -172 132
-396 238 -612 291 -56 13 -104 26 -106 29 -5 5 -5 357 0 362 1 1 58 -8 125
-22 249 -49 505 -154 707 -290 55 -36 102 -69 105 -73 3 -3 23 -19 45 -36 22
-16 89 -76 148 -134 l108 -105 117 116 c64 64 188 186 276 272 l158 155 -128
129 c-71 71 -156 151 -189 179 -59 49 -231 173 -240 173 -2 0 -29 15 -58 34
-49 32 -207 114 -287 150 -213 95 -546 186 -795 216 -49 6 -103 13 -120 16
-34 6 -561 15 -566 9z m476 -139 c55 -4 111 -9 125 -11 14 -2 48 -6 75 -10
217 -26 511 -105 720 -192 255 -107 506 -270 702 -457 l97 -93 -178 -174 c-97
-96 -180 -174 -185 -174 -4 0 -39 28 -77 63 -175 161 -390 298 -605 387 -176
73 -413 134 -589 151 -36 3 -75 7 -88 9 l-23 4 3 -315 c1 -174 5 -317 8 -319
4 -2 29 -7 56 -10 27 -4 92 -17 144 -30 291 -72 520 -202 718 -405 l73 -75
-64 -60 c-59 -55 -210 -196 -331 -308 l-49 -45 -70 69 c-152 151 -339 244
-552 274 -53 8 -218 7 -275 -1 -312 -42 -580 -229 -709 -494 -35 -71 -72 -184
-87 -260 -13 -72 -12 -324 1 -400 36 -197 120 -362 252 -495 68 -69 152 -135
172 -135 5 0 11 -3 13 -7 13 -31 238 -105 363 -121 149 -20 364 3 470 48 25
11 45 17 45 15 0 -8 146 78 200 118 30 23 82 69 116 103 l61 62 40 -36 c45
-42 243 -226 341 -318 l65 -60 -100 -100 c-110 -110 -232 -198 -368 -265 -152
-76 -273 -113 -505 -154 -19 -4 -120 -8 -225 -10 -248 -5 -410 18 -613 84 -84
28 -251 104 -310 141 -21 14 -30 7 -252 -215 -127 -126 -230 -232 -230 -235 0
-11 187 -125 295 -180 222 -114 485 -197 710 -226 22 -3 46 -7 53 -9 22 -8
223 -19 332 -19 123 0 279 10 370 24 36 6 83 13 105 16 58 9 265 63 289 76 12
6 21 10 21 9 0 -1 9 1 20 5 254 89 509 244 710 432 28 26 57 52 66 59 13 10
43 -16 193 -166 l177 -178 -83 -80 c-46 -45 -103 -98 -128 -118 -25 -20 -54
-44 -65 -53 -64 -53 -260 -173 -385 -236 -229 -114 -486 -199 -727 -240 -223
-38 -363 -50 -598 -50 -499 1 -940 101 -1350 307 -66 33 -130 65 -142 71 -13
6 -23 14 -23 19 0 4 -5 7 -10 7 -18 0 -257 165 -335 230 -239 202 -450 452
-588 695 -69 120 -85 152 -135 270 -94 221 -158 450 -187 670 -4 28 -8 61 -10
73 -23 147 -24 542 -1 702 2 14 7 52 12 85 4 33 8 62 9 65 1 3 5 25 9 50 14
79 64 272 94 360 190 558 578 1044 1083 1359 181 112 432 230 619 289 74 23
242 69 280 76 14 2 48 9 75 15 28 6 64 13 80 15 77 10 142 18 165 22 14 2 75
7 135 10 61 4 111 7 112 8 5 5 285 -2 378 -8z"/>
<path d="M2785 4994 c-152 -28 -185 -37 -320 -81 -553 -180 -1016 -570 -1267
-1068 -96 -189 -181 -453 -203 -625 -4 -29 -9 -62 -11 -74 -22 -109 -21 -561
1 -629 2 -6 6 -30 9 -52 35 -271 157 -593 316 -835 63 -95 145 -202 160 -208
4 -2 109 99 232 224 l225 227 -57 80 c-112 156 -197 360 -240 577 -19 93 -24
149 -24 295 -1 99 2 206 6 237 48 375 225 710 503 952 197 171 465 302 720
352 50 10 95 21 101 26 7 5 10 106 8 310 -1 167 -2 306 -3 310 -1 9 -16 7
-156 -18z m25 -313 l0 -178 -97 -27 c-307 -84 -555 -226 -768 -440 -254 -255
-406 -557 -460 -916 -2 -14 -6 -44 -10 -67 -9 -57 -9 -313 -1 -393 9 -77 12
-98 26 -170 6 -30 14 -66 16 -80 21 -108 115 -333 185 -445 21 -33 39 -65 41
-72 3 -11 -248 -273 -261 -273 -10 1 -101 146 -152 245 -86 162 -168 401 -193
558 -3 20 -9 53 -12 72 -17 107 -21 200 -19 380 2 110 5 211 8 225 3 14 8 47
12 73 24 193 93 413 192 610 267 535 811 940 1438 1071 58 12 55 22 55 -173z"/>
</g>
</svg>
